# xmcd CD database file generated by Grip 2.96
# 
# Track frame offsets:
#       150
#       1620
#       14197
#       29040
#       37915
#       46672
#       56777
#       69770
#       84262
#       95177
#       111550
#       124202
#       138422
#       154325
#       164870
#       173210
#       184232
#       194372
#       208490
#       220690
#       234345
#       247725
#       261842
#       278177
#       293590
#       301482
# 
# Disc length: 4070 seconds
# 
# Revision: 0
# Processed by: cddbd v1.4PL0 Copyright (c) Steve Scherf et al.
# Submitted via: Grip 2.96
# 
DISCID=800fe41a
DTITLE=Various Artist - The Greatest Country Show on Earth (live) - cd3
DYEAR=1900
DGENRE=
TTITLE0=intro
TTITLE1=Lynn Anderson - Rose garden
TTITLE2=Jeannie C. Riley - Harper valley P.T.A.
TTITLE3=Porter Wagoner - Satisfied mind
TTITLE4=T.G. Sheppard - I'll be comin' back for more
TTITLE5=Freddy Fender - Wasted days and Wasted nights
TTITLE6=Mel McDaniel - Baby's got her blue jeans on
TTITLE7=Ed Bruce and Lynn Anderson - You're the best break (this old heart ever had)
TTITLE8=Mickey Gilley - Talk to me
TTITLE9=Tom T. Hall - Old dogs, children, watermelon wine
TTITLE10=Dave Rowland and Sugar - The door is always open
TTITLE11=Tammy Wynette - Till I can make it on my own
TTITLE12=Earl Thomas Conley - Angel in disguise
TTITLE13=The Bellamy Brothers - Let your love flow
TTITLE14=Jimmy Dean - Big John
TTITLE15=Gene Watson - You're out doin' - What I'm doin' without
TTITLE16=Faron Young - Goin' steady
TTITLE17=George Jones - Who's gonna fill their shoes
TTITLE18=Bobby Bare - Tequila Sheila
TTITLE19=Johnny Rodriguez - Desperado
TTITLE20=Moe Bandy - Bandy, the rodeo clown
TTITLE21=Con Hunley - Oh girl!
TTITLE22=Dottie West - Leavin's for unbelievers
TTITLE23=Nitty Gritty Dirt Band - Dance little Jean
TTITLE24=Johnny Tillotson - Send me the pillow that you dream on
TTITLE25=Leon Everette - Hurricane
EXTD=
EXTT0=
EXTT1=
EXTT2=
EXTT3=
EXTT4=
EXTT5=
EXTT6=
EXTT7=
EXTT8=
EXTT9=
EXTT10=
EXTT11=
EXTT12=
EXTT13=
EXTT14=
EXTT15=
EXTT16=
EXTT17=
EXTT18=
EXTT19=
EXTT20=
EXTT21=
EXTT22=
EXTT23=
EXTT24=
EXTT25=
PLAYORDER=
